<svg width="27" height="27" viewBox="0 0 27 27" fill="none" xmlns="http://www.w3.org/2000/svg">
<g id="fe:mail">
<g id="feMail0">
<g id="feMail1">
<path id="feMail2" d="M4.5 11.25V20.25H22.5V11.25L13.5 14.625L4.5 11.25ZM4.5 6.75V9L13.5 12.375L22.5 9V6.75H4.5ZM4.5 4.5H22.5C23.0967 4.5 23.669 4.73705 24.091 5.15901C24.5129 5.58097 24.75 6.15326 24.75 6.75V20.25C24.75 20.8467 24.5129 21.419 24.091 21.841C23.669 22.2629 23.0967 22.5 22.5 22.5H4.5C3.90326 22.5 3.33097 22.2629 2.90901 21.841C2.48705 21.419 2.25 20.8467 2.25 20.25V6.75C2.25 6.15326 2.48705 5.58097 2.90901 5.15901C3.33097 4.73705 3.90326 4.5 4.5 4.5Z" fill="#2C2C2C"/>
</g>
</g>
</g>
</svg>
