<svg width="38" height="38" viewBox="0 0 38 38" fill="none" xmlns="http://www.w3.org/2000/svg">
<g id="fe:mail">
<g id="feMail0">
<g id="feMail1">
<path id="feMail2" d="M6.33329 15.8333V28.5H31.6666V15.8333L19 20.5833L6.33329 15.8333ZM6.33329 9.49999V12.6667L19 17.4167L31.6666 12.6667V9.49999H6.33329ZM6.33329 6.33333H31.6666C32.5065 6.33333 33.3119 6.66696 33.9058 7.26082C34.4997 7.85469 34.8333 8.66014 34.8333 9.49999V28.5C34.8333 29.3398 34.4997 30.1453 33.9058 30.7392C33.3119 31.333 32.5065 31.6667 31.6666 31.6667H6.33329C5.49344 31.6667 4.68799 31.333 4.09412 30.7392C3.50026 30.1453 3.16663 29.3398 3.16663 28.5V9.49999C3.16663 8.66014 3.50026 7.85469 4.09412 7.26082C4.68799 6.66696 5.49344 6.33333 6.33329 6.33333Z" fill="white"/>
</g>
</g>
</g>
</svg>
